<?xml version="1.0" encoding="UTF-8"?>
<svg width="700pt" height="700pt" version="1.1" viewBox="0 0 700 700" xmlns="http://www.w3.org/2000/svg">
 <path d="m459.44 529.96c4.6523 1.3477 9.5195-1.3398 10.852-6l111.24-386.85c1.3047-4.6367-1.3828-9.457-6.0156-10.785l-151.14-43.461v-44.383c0.015625-4.832-3.8828-8.7656-8.7148-8.7852l-288.8 0.007813c-4.832 0.019531-8.7344 3.9531-8.7148 8.7852v402.46c-0.015625 4.832 3.8828 8.7656 8.7148 8.7852l55.156 0.19922zm-323.78-482.75h271.21v385.04l-271.21-0.003906zm21.824 22.797v43.734h17.5v-26.215h26.301v-17.516zm266.89 31.051 137.9 39.613-106.38 370.05-212.04-60.977h171.8c4.832-0.015625 8.7344-3.9531 8.7148-8.7852z"/>
</svg>
