<?xml version="1.0" encoding="UTF-8"?>
<svg width="700pt" height="700pt" version="1.1" viewBox="0 0 700 700" xmlns="http://www.w3.org/2000/svg">
 <path d="m280 466.67h221.67c19.316 0 35-15.684 35-35v-326.67c0-19.316-15.684-35-35-35h-221.67zm-23.332 0v-396.67h-81.668c-19.316 0-35 15.684-35 35v326.67c0 19.316 15.684 35 35 35zm245 23.332h-326.67c-32.203 0-58.332-26.129-58.332-58.332v-326.67c0-32.203 26.129-58.332 58.332-58.332h326.67c32.203 0 58.332 26.129 58.332 58.332v326.67c0 32.203-26.129 58.332-58.332 58.332zm-326.67-350c-6.4414 0-11.668-5.2227-11.668-11.668 0-6.4414 5.2266-11.664 11.668-11.664h46.668c6.4414 0 11.664 5.2227 11.664 11.664 0 6.4453-5.2227 11.668-11.664 11.668zm0 46.668c-6.4414 0-11.668-5.2266-11.668-11.668s5.2266-11.668 11.668-11.668h46.668c6.4414 0 11.664 5.2266 11.664 11.668s-5.2227 11.668-11.664 11.668zm0 46.664c-6.4414 0-11.668-5.2227-11.668-11.664 0-6.4453 5.2266-11.668 11.668-11.668h46.668c6.4414 0 11.664 5.2227 11.664 11.668 0 6.4414-5.2227 11.664-11.664 11.664z"/>
</svg>
