<?xml version="1.0" encoding="UTF-8"?>
<svg width="700pt" height="700pt" version="1.1" viewBox="0 0 700 700" xmlns="http://www.w3.org/2000/svg">
 <path d="m560 17.5h-420c-13.926 0-27.277 5.5312-37.125 15.375-9.8438 9.8477-15.375 23.199-15.375 37.125v420c0 13.926 5.5312 27.277 15.375 37.125 9.8477 9.8438 23.199 15.375 37.125 15.375h420c13.926 0 27.277-5.5312 37.125-15.375 9.8438-9.8477 15.375-23.199 15.375-37.125v-420c0-13.926-5.5312-27.277-15.375-37.125-9.8477-9.8438-23.199-15.375-37.125-15.375zm-420 35h420c4.6406 0 9.0938 1.8438 12.375 5.125s5.125 7.7344 5.125 12.375v327.43l-84.352-96.426c-9.0742-12.191-22.992-19.852-38.148-21-15.074-0.875-29.82 4.6523-40.602 15.227l-49.352 49.523-81.898-96.25c-9.0742-12.191-22.992-19.852-38.148-21-15.094-1.0117-29.891 4.5391-40.602 15.227l-81.898 82.598v-255.32c0-4.6406 1.8438-9.0938 5.125-12.375s7.7344-5.125 12.375-5.125zm420 455h-420c-4.6406 0-9.0938-1.8438-12.375-5.125s-5.125-7.7344-5.125-12.375v-115.32l106.75-106.57c3.3555-3.8906 8.3516-5.9648 13.477-5.6016 5.3203 0.29688 10.215 3.0039 13.297 7.3516l150.68 178.5c3.2266 4.082 8.0977 6.5195 13.301 6.6484 4.4844 0 8.7969-1.7227 12.051-4.8086 3.25-3.0859 5.1953-7.3047 5.4258-11.785 0.23438-4.4766-1.2617-8.875-4.1758-12.281l-45.676-54.074 52.5-51.449c3.457-3.6953 8.4375-5.5703 13.477-5.0781 5.4141 0.28516 10.391 3.0664 13.473 7.5273l110.43 127.57v39.375c0 4.6406-1.8438 9.0938-5.125 12.375s-7.7344 5.125-12.375 5.125zm-105-280c18.566 0 36.371-7.375 49.496-20.504 13.129-13.125 20.504-30.93 20.504-49.496s-7.375-36.371-20.504-49.496c-13.125-13.129-30.93-20.504-49.496-20.504s-36.371 7.375-49.496 20.504c-13.129 13.125-20.504 30.93-20.504 49.496s7.375 36.371 20.504 49.496c13.125 13.129 30.93 20.504 49.496 20.504zm0-105c9.2812 0 18.184 3.6875 24.75 10.25 6.5625 6.5664 10.25 15.469 10.25 24.75s-3.6875 18.184-10.25 24.75c-6.5664 6.5625-15.469 10.25-24.75 10.25s-18.184-3.6875-24.75-10.25c-6.5625-6.5664-10.25-15.469-10.25-24.75s3.6875-18.184 10.25-24.75c6.5664-6.5625 15.469-10.25 24.75-10.25z"/>
</svg>
