<?xml version="1.0" encoding="UTF-8"?>
<svg width="700pt" height="700pt" version="1.1" viewBox="0 0 700 700" xmlns="http://www.w3.org/2000/svg">
 <g fill-rule="evenodd">
  <path d="m569.66 287.84c-0.28125 0.12109-0.50781 0.24609-0.66406 0.38672-0.15625 0.15625-0.24609 0.31641-0.24609 0.52344z"/>
  <path d="m402.5 115.66v-54.406c0-4.8281-3.9219-8.75-8.75-8.75h-87.5c-4.8281 0-8.75 3.9219-8.75 8.75v54.406c-9.2227 2.9414-18.094 6.6484-26.566 11.023l-38.5-38.484c-3.4141-3.4141-8.9414-3.4141-12.371 0l-61.863 61.863c-3.4141 3.4297-3.4141 8.9609 0 12.371l38.484 38.5c-4.375 8.4688-8.0859 17.344-11.023 26.566h-54.406c-4.8281 0-8.75 3.9219-8.75 8.75v87.5c0 4.8281 3.9219 8.75 8.75 8.75h54.406c2.9414 9.2227 6.6484 18.094 11.023 26.566l-38.484 38.5c-3.4141 3.4141-3.4141 8.9414 0 12.371l61.863 61.863c3.4297 3.4141 8.9609 3.4141 12.371 0l38.5-38.484c8.4688 4.375 17.344 8.0859 26.566 11.023v54.406c0 4.8281 3.9219 8.75 8.75 8.75h87.5c4.8281 0 8.75-3.9219 8.75-8.75v-54.406c9.2227-2.9414 18.094-6.6484 26.566-11.023l38.5 38.484c3.4141 3.4141 8.9414 3.4141 12.371 0l61.863-61.863c3.4141-3.4297 3.4141-8.9609 0-12.371l-38.484-38.5c4.375-8.4688 8.0859-17.344 11.023-26.566h54.406c4.8281 0 8.75-3.9219 8.75-8.75v-87.5c0-4.8281-3.9219-8.75-8.75-8.75h-54.406c-2.9414-9.2227-6.6484-18.094-11.023-26.566l38.484-38.5c3.4141-3.4141 3.4141-8.9414 0-12.371l-61.863-61.863c-3.4297-3.4141-8.9609-3.4141-12.371 0l-38.5 38.484c-8.4688-4.375-17.344-8.0859-26.566-11.023zm-17.5 6.5273c0 3.9219 2.625 7.3867 6.4219 8.418 12.32 3.4141 24.027 8.3125 34.895 14.488 3.4297 1.9414 7.7344 1.3633 10.516-1.418l36.906-36.906 49.488 49.488-36.906 36.906c-2.7812 2.7812-3.3594 7.0859-1.418 10.516 6.1758 10.887 11.078 22.594 14.488 34.895 1.0508 3.7969 4.4961 6.4219 8.418 6.4219h52.184v70h-52.184c-3.9219 0-7.3867 2.625-8.418 6.4219-3.4141 12.32-8.3125 24.027-14.488 34.895-1.9414 3.4297-1.3633 7.7344 1.418 10.516l36.906 36.906-49.488 49.488-36.906-36.906c-2.7812-2.7812-7.0859-3.3594-10.516-1.418-10.887 6.1758-22.594 11.078-34.895 14.488-3.7969 1.0508-6.4219 4.4961-6.4219 8.418v52.184h-70v-52.184c0-3.9219-2.625-7.3867-6.4219-8.418-12.32-3.4141-24.027-8.3125-34.895-14.488-3.4297-1.9414-7.7344-1.3633-10.516 1.418l-36.906 36.906-49.488-49.488 36.906-36.906c2.7812-2.7812 3.3594-7.0859 1.418-10.516-6.1758-10.887-11.078-22.594-14.488-34.895-1.0508-3.7969-4.4961-6.4219-8.418-6.4219h-52.184v-70h52.184c3.9219 0 7.3867-2.625 8.418-6.4219 3.4141-12.32 8.3125-24.027 14.488-34.895 1.9414-3.4297 1.3633-7.7344-1.418-10.516l-36.906-36.906 49.488-49.488 36.906 36.906c2.7812 2.7812 7.0859 3.3594 10.516 1.418 10.887-6.1758 22.594-11.078 34.895-14.488 3.7969-1.0508 6.4219-4.4961 6.4219-8.418v-52.184h70v52.184zm-35 88.727c-38.133 0-69.09 30.957-69.09 69.09s30.957 69.09 69.09 69.09 69.09-30.957 69.09-69.09-30.957-69.09-69.09-69.09zm0 17.5c28.473 0 51.59 23.117 51.59 51.59s-23.117 51.59-51.59 51.59-51.59-23.117-51.59-51.59 23.117-51.59 51.59-51.59z"/>
 </g>
</svg>
